<svg width="891" height="402" xmlns="http://www.w3.org/2000/svg">
 <metadata id="metadata8">image/svg+xml</metadata>
 <defs>
  <clipPath clipPathUnits="userSpaceOnUse" id="clipPath18">
   <path d="m-86.911901,704.913865l841.89,0l0,-595.28l-841.89,0l0,595.28z" id="path16"/>
  </clipPath>
  <clipPath clipPathUnits="userSpaceOnUse" id="clipPath152">
   <path d="m202.433099,415.218865l263.052,0l0,184l-263.052,0l0,-184z" id="path150"/>
  </clipPath>
 </defs>
 <g>
  <title>background</title>
  <rect fill="none" id="canvas_background" height="404" width="893" y="-1" x="-1"/>
 </g>
 <g>
  <title>Layer 1</title>
  <g id="g10" transform="matrix(1.3333333,0,0,-1.3333333,0,793.70667) ">
   <g id="g12">
    <g id="g14" clip-path="url(#clipPath18)">
     <g id="g20">
      <path fill="#f3f3f4" fill-rule="nonzero" d="m24.219401,372.158675c-0.211,-0.686 -0.52,-1.619 -0.927,-2.799c-0.406,-1.182 -0.868,-2.546 -1.387,-4.093c-0.52,-1.547 -1.1,-3.251 -1.741,-5.111c-0.642,-1.861 -1.294,-3.811 -1.956,-5.852l12.015,0c-0.643,2.047 -1.266,4.004 -1.868,5.87c-0.603,1.865 -1.176,3.573 -1.718,5.121c-0.542,1.547 -1.018,2.91 -1.427,4.09c-0.41,1.179 -0.74,2.103 -0.991,2.774m11.363,-36.529c-0.468,1.641 -0.97,3.327 -1.509,5.056c-0.537,1.73 -1.074,3.452 -1.607,5.167l-16.409,0c-0.531,-1.723 -1.063,-3.449 -1.595,-5.181c-0.534,-1.731 -1.03,-3.413 -1.49,-5.042l-9.821,0c1.581,5.088 3.081,9.791 4.5,14.107c1.419,4.316 2.806,8.383 4.165,12.199c1.358,3.817 2.696,7.439 4.014,10.87c1.317,3.43 2.686,6.781 4.105,10.053l8.965,0c1.381,-3.272 2.741,-6.623 4.081,-10.053c1.34,-3.431 2.691,-7.053 4.051,-10.87c1.36,-3.816 2.751,-7.883 4.172,-12.199c1.421,-4.316 2.923,-9.019 4.507,-14.107l-10.129,0z" id="path22"/>
     </g>
     <g id="g24">
      <path fill="#f3f3f4" fill-rule="nonzero" d="m81.499293,335.62976c-2.708,5.406 -5.638,10.745 -8.791,16.016c-3.153,5.27 -6.508,10.244 -10.064,14.925l0,-30.941l-9.337,0l0,47.228l7.7,0c1.334,-1.499 2.809,-3.339 4.426,-5.52c1.616,-2.18 3.263,-4.509 4.941,-6.985c1.677,-2.477 3.344,-5.043 5.002,-7.701c1.656,-2.658 3.213,-5.214 4.668,-7.667l0,27.873l9.397,0l0,-47.228l-7.942,0z" id="path26"/>
     </g>
     <g id="g28">
      <path fill="#f3f3f4" fill-rule="nonzero" d="m110.7214,344.285262c0.444,-0.046 0.96,-0.08 1.546,-0.102c0.585,-0.024 1.283,-0.034 2.092,-0.034c4.729,0 8.235,1.339 10.518,4.02c2.283,2.68 3.426,6.383 3.426,11.109c0,4.952 -1.091,8.7 -3.274,11.245c-2.182,2.544 -5.638,3.816 -10.367,3.816c-0.647,0 -1.314,-0.011 -2.001,-0.034c-0.688,-0.023 -1.334,-0.08 -1.94,-0.17l0,-29.85zm27.343,14.993c0,-4.089 -0.567,-7.656 -1.698,-10.699c-1.132,-3.045 -2.738,-5.567 -4.819,-7.566c-2.083,-2 -4.619,-3.499 -7.609,-4.497c-2.992,-0.999 -6.346,-1.5 -10.064,-1.5c-1.698,0 -3.679,0.08 -5.942,0.239c-2.264,0.159 -4.486,0.487 -6.669,0.988l0,46.002c2.183,0.453 4.456,0.76 6.821,0.92c2.364,0.158 4.395,0.238 6.093,0.238c3.597,0 6.86,-0.454 9.791,-1.363c2.93,-0.909 5.446,-2.34 7.548,-4.293c2.101,-1.954 3.718,-4.453 4.85,-7.497c1.131,-3.044 1.698,-6.702 1.698,-10.972" id="path30"/>
     </g>
     <g id="g32">
      <path fill="#f3f3f4" fill-rule="nonzero" d="m160.897105,363.487365c1.699,3.217 3.317,6.434 4.856,9.651c1.537,3.217 2.954,6.457 4.249,9.72l10.428,0c-2.304,-5.089 -4.689,-10.018 -7.154,-14.789c-2.466,-4.771 -5.073,-9.564 -7.821,-14.38l0,-18.06l-9.457,0l0,17.924c-2.749,4.815 -5.366,9.632 -7.852,14.448c-2.485,4.816 -4.88,9.768 -7.184,14.857l10.973,0c1.292,-3.263 2.684,-6.503 4.178,-9.72c1.493,-3.217 3.088,-6.434 4.784,-9.651" id="path34"/>
     </g>
     <g id="g36">
      <path fill="#f3f3f4" fill-rule="nonzero" d="m217.654597,343.739867c1.334,0 2.434,0.125 3.304,0.375c0.869,0.249 1.566,0.59 2.092,1.022c0.525,0.431 0.888,0.943 1.091,1.533c0.202,0.591 0.303,1.25 0.303,1.977c0,1.544 -0.647,2.828 -1.94,3.85c-1.294,1.023 -3.516,2.123 -6.669,3.305c-1.374,0.546 -2.749,1.17 -4.123,1.875c-1.374,0.704 -2.606,1.59 -3.698,2.657c-1.091,1.068 -1.981,2.362 -2.667,3.885c-0.688,1.522 -1.031,3.374 -1.031,5.555c0,2.181 0.364,4.145 1.091,5.894c0.728,1.749 1.758,3.238 3.092,4.464c1.334,1.227 2.95,2.17 4.85,2.829c1.9,0.658 4.042,0.988 6.427,0.988c2.829,0 5.274,-0.341 7.336,-1.023c2.061,-0.681 3.759,-1.43 5.092,-2.248l-2.728,-8.383c-1.173,0.682 -2.476,1.283 -3.911,1.806c-1.434,0.522 -3.162,0.784 -5.183,0.784c-2.264,0 -3.891,-0.353 -4.88,-1.056c-0.991,-0.705 -1.486,-1.784 -1.486,-3.238c0,-0.863 0.182,-1.591 0.546,-2.181c0.364,-0.591 0.879,-1.124 1.546,-1.601c0.667,-0.477 1.434,-0.909 2.304,-1.295c0.868,-0.386 1.828,-0.784 2.879,-1.193c2.183,-0.909 4.082,-1.806 5.699,-2.691c1.617,-0.887 2.961,-1.92 4.032,-3.102c1.07,-1.181 1.869,-2.567 2.395,-4.156c0.525,-1.591 0.788,-3.522 0.788,-5.793c0,-4.408 -1.375,-7.827 -4.123,-10.257c-2.749,-2.431 -6.891,-3.646 -12.428,-3.646c-1.86,0 -3.537,0.126 -5.032,0.375c-1.496,0.25 -2.82,0.556 -3.971,0.92c-1.152,0.363 -2.143,0.749 -2.971,1.158c-0.829,0.409 -1.526,0.795 -2.092,1.159l2.668,8.451c1.252,-0.774 2.798,-1.466 4.638,-2.079c1.839,-0.613 4.092,-0.92 6.76,-0.92" id="path38"/>
     </g>
     <g id="g40">
      <path fill="#f3f3f4" fill-rule="nonzero" d="m268.944087,382.85826l9.458,0l0,-47.228l-9.458,0l0,20.036l-15.884,0l0,-20.036l-9.458,0l0,47.228l9.458,0l0,-18.06l15.884,0l0,18.06z" id="path42"/>
     </g>
     <g id="g44">
      <path fill="#f3f3f4" fill-rule="nonzero" d="m307.126704,372.158675c-0.212,-0.686 -0.52,-1.619 -0.927,-2.799c-0.406,-1.182 -0.869,-2.546 -1.387,-4.093c-0.52,-1.547 -1.1,-3.251 -1.741,-5.111c-0.642,-1.861 -1.294,-3.811 -1.956,-5.852l12.015,0c-0.643,2.047 -1.266,4.004 -1.868,5.87c-0.603,1.865 -1.176,3.573 -1.718,5.121c-0.542,1.547 -1.018,2.91 -1.427,4.09c-0.41,1.179 -0.74,2.103 -0.991,2.774m11.363,-36.529c-0.468,1.641 -0.97,3.327 -1.509,5.056c-0.537,1.73 -1.074,3.452 -1.607,5.167l-16.409,0c-0.531,-1.723 -1.063,-3.449 -1.595,-5.181c-0.534,-1.731 -1.03,-3.413 -1.49,-5.042l-9.821,0c1.581,5.088 3.08,9.791 4.5,14.107c1.419,4.316 2.806,8.383 4.165,12.199c1.358,3.817 2.696,7.439 4.014,10.87c1.317,3.43 2.686,6.781 4.105,10.053l8.965,0c1.381,-3.272 2.741,-6.623 4.081,-10.053c1.34,-3.431 2.691,-7.053 4.051,-10.87c1.36,-3.816 2.751,-7.883 4.172,-12.199c1.421,-4.316 2.923,-9.019 4.507,-14.107l-10.129,0z" id="path46"/>
     </g>
     <g id="g48">
      <path fill="#f3f3f4" fill-rule="nonzero" d="m349.06869,374.339675c-0.688,0 -1.304,-0.024 -1.849,-0.068c-0.546,-0.046 -1.061,-0.092 -1.546,-0.137l0,-12.812l2.667,0c3.556,0 6.103,0.499 7.639,1.499c1.536,0.999 2.304,2.703 2.304,5.112c0,2.317 -0.779,3.963 -2.334,4.94c-1.557,0.977 -3.85,1.466 -6.881,1.466m-0.545,9.064c6.304,0 11.133,-1.261 14.489,-3.782c3.354,-2.522 5.032,-6.441 5.032,-11.757c0,-3.317 -0.677,-6.008 -2.031,-8.075c-1.355,-2.068 -3.305,-3.692 -5.851,-4.873c0.849,-1.182 1.737,-2.533 2.668,-4.055c0.929,-1.523 1.849,-3.113 2.759,-4.771c0.909,-1.659 1.788,-3.385 2.637,-5.18c0.849,-1.795 1.637,-3.555 2.364,-5.281l-10.573,0c-0.771,1.544 -1.552,3.112 -2.343,4.702c-0.791,1.591 -1.602,3.136 -2.434,4.635c-0.832,1.5 -1.654,2.918 -2.465,4.259c-0.811,1.34 -1.623,2.556 -2.434,3.646l-4.668,0l0,-17.242l-9.458,0l0,46.547c2.061,0.454 4.193,0.772 6.396,0.954c2.202,0.181 4.173,0.273 5.912,0.273" id="path50"/>
     </g>
     <g id="g52">
      <path fill="#f3f3f4" fill-rule="nonzero" d="m391.870295,374.339675c-0.688,0 -1.364,-0.024 -2.031,-0.068c-0.667,-0.046 -1.243,-0.092 -1.728,-0.137l0,-13.63l2.971,0c3.274,0 5.739,0.5 7.396,1.499c1.657,0.999 2.486,2.863 2.486,5.589c0,1.317 -0.212,2.408 -0.637,3.271c-0.424,0.863 -1.03,1.556 -1.818,2.079c-0.789,0.522 -1.749,0.886 -2.88,1.09c-1.132,0.205 -2.385,0.307 -3.759,0.307m-0.606,9.064c6.264,0 11.074,-1.239 14.429,-3.714c3.354,-2.477 5.032,-6.532 5.032,-12.165c0,-5.68 -1.698,-9.78 -5.093,-12.302c-3.394,-2.521 -8.245,-3.782 -14.55,-3.782l-2.971,0l0,-15.811l-9.458,0l0,46.547c2.061,0.454 4.244,0.772 6.548,0.954c2.304,0.181 4.324,0.273 6.063,0.273" id="path54"/>
     </g>
     <g id="g56">
      <path fill="#f3f3f4" fill-rule="nonzero" d="m455.770594,372.696456c0,1.047 -0.303,1.98 -0.909,2.799c-0.607,0.819 -1.617,1.229 -3.032,1.229c-1.294,0 -2.293,-0.443 -3.001,-1.329c-0.707,-0.885 -1.06,-2.033 -1.06,-3.441c0,-1.182 0.303,-2.329 0.909,-3.442c0.606,-1.114 1.388,-2.177 2.344,-3.19c1.299,0.819 2.415,1.797 3.349,2.935c0.933,1.138 1.4,2.618 1.4,4.439m-11.762,-23.518c0,-0.681 0.122,-1.384 0.365,-2.109c0.243,-0.725 0.638,-1.394 1.186,-2.005c0.546,-0.612 1.245,-1.11 2.096,-1.496c0.851,-0.385 1.884,-0.578 3.1,-0.578c1.702,0 3.191,0.253 4.468,0.76c1.276,0.507 2.34,1.175 3.19,2.004l-9.765,10.903c-0.563,-0.317 -1.115,-0.703 -1.657,-1.156c-0.542,-0.454 -1.034,-0.986 -1.476,-1.598c-0.442,-0.612 -0.805,-1.303 -1.085,-2.074c-0.281,-0.771 -0.422,-1.655 -0.422,-2.651m-8.426,-1.02c0,1.724 0.221,3.302 0.664,4.732c0.444,1.43 1.038,2.724 1.784,3.881c0.745,1.157 1.612,2.179 2.6,3.065c0.988,0.885 2.026,1.667 3.114,2.349c-0.955,1.333 -1.817,2.76 -2.584,4.283c-0.769,1.521 -1.153,3.191 -1.153,5.009c0,3.997 1.07,7.076 3.214,9.234c2.141,2.158 5.092,3.237 8.851,3.237c1.9,0 3.556,-0.284 4.972,-0.852c1.414,-0.568 2.596,-1.34 3.546,-2.318c0.95,-0.977 1.667,-2.113 2.152,-3.408c0.485,-1.295 0.728,-2.692 0.728,-4.192c0,-2.773 -0.699,-5.238 -2.093,-7.396c-1.396,-2.16 -3.166,-3.966 -5.309,-5.419l6.826,-7.596c0.357,0.904 0.705,2.046 1.042,3.426c0.337,1.38 0.546,2.59 0.625,3.63l7.518,-1.09c-0.082,-0.865 -0.223,-1.809 -0.426,-2.831c-0.202,-1.023 -0.456,-2.057 -0.759,-3.103c-0.304,-1.046 -0.648,-2.091 -1.032,-3.137c-0.386,-1.046 -0.801,-2 -1.246,-2.864c1.294,-1.635 2.558,-3.416 3.792,-5.346c1.234,-1.93 2.297,-3.87 3.188,-5.823l-9.244,0c-0.338,0.599 -0.79,1.342 -1.354,2.228c-0.565,0.886 -1.131,1.649 -1.696,2.285c-1.617,-1.458 -3.498,-2.677 -5.641,-3.656c-2.144,-0.98 -4.55,-1.47 -7.218,-1.47c-2.831,0 -5.197,0.397 -7.098,1.192c-1.899,0.794 -3.427,1.815 -4.578,3.063c-1.153,1.248 -1.973,2.656 -2.458,4.223c-0.485,1.565 -0.727,3.119 -0.727,4.664" id="path58"/>
     </g>
     <g id="g60">
      <path fill="#f3f3f4" fill-rule="nonzero" d="m513.122218,343.739867c1.333,0 2.435,0.125 3.304,0.375c0.869,0.249 1.566,0.59 2.092,1.022c0.524,0.431 0.888,0.943 1.091,1.533c0.202,0.591 0.303,1.25 0.303,1.977c0,1.544 -0.647,2.828 -1.94,3.85c-1.294,1.023 -3.517,2.123 -6.669,3.305c-1.375,0.546 -2.749,1.17 -4.123,1.875c-1.374,0.704 -2.606,1.59 -3.698,2.657c-1.091,1.068 -1.98,2.362 -2.668,3.885c-0.687,1.522 -1.03,3.374 -1.03,5.555c0,2.181 0.364,4.145 1.091,5.894c0.728,1.749 1.759,3.238 3.092,4.464c1.334,1.227 2.95,2.17 4.85,2.829c1.9,0.658 4.042,0.988 6.427,0.988c2.828,0 5.274,-0.341 7.336,-1.023c2.061,-0.681 3.759,-1.43 5.092,-2.248l-2.728,-8.383c-1.172,0.682 -2.476,1.283 -3.91,1.806c-1.436,0.522 -3.163,0.784 -5.184,0.784c-2.264,0 -3.891,-0.353 -4.88,-1.056c-0.991,-0.705 -1.486,-1.784 -1.486,-3.238c0,-0.863 0.182,-1.591 0.546,-2.181c0.364,-0.591 0.879,-1.124 1.546,-1.601c0.667,-0.477 1.434,-0.909 2.303,-1.295c0.87,-0.386 1.829,-0.784 2.881,-1.193c2.182,-0.909 4.081,-1.806 5.698,-2.691c1.617,-0.887 2.961,-1.92 4.032,-3.102c1.071,-1.181 1.869,-2.567 2.395,-4.156c0.525,-1.591 0.788,-3.522 0.788,-5.793c0,-4.408 -1.374,-7.827 -4.122,-10.257c-2.749,-2.431 -6.892,-3.646 -12.429,-3.646c-1.859,0 -3.537,0.126 -5.032,0.375c-1.496,0.25 -2.819,0.556 -3.972,0.92c-1.151,0.363 -2.142,0.749 -2.97,1.158c-0.829,0.409 -1.526,0.795 -2.092,1.159l2.668,8.451c1.252,-0.774 2.798,-1.466 4.638,-2.079c1.839,-0.613 4.092,-0.92 6.76,-0.92" id="path62"/>
     </g>
     <g id="g64">
      <path fill="#f3f3f4" fill-rule="nonzero" d="m546.726771,359.27806c0,-2.317 0.252,-4.408 0.758,-6.27c0.505,-1.863 1.233,-3.465 2.183,-4.804c0.949,-1.341 2.111,-2.375 3.486,-3.101c1.374,-0.727 2.95,-1.091 4.729,-1.091c1.737,0 3.304,0.364 4.698,1.091c1.395,0.726 2.567,1.76 3.516,3.101c0.95,1.339 1.677,2.941 2.183,4.804c0.505,1.862 0.758,3.953 0.758,6.27c0,2.317 -0.253,4.418 -0.758,6.304c-0.506,1.885 -1.233,3.498 -2.183,4.839c-0.949,1.339 -2.121,2.373 -3.516,3.101c-1.394,0.726 -2.961,1.09 -4.698,1.09c-1.779,0 -3.355,-0.375 -4.729,-1.124c-1.375,-0.75 -2.537,-1.796 -3.486,-3.135c-0.95,-1.341 -1.678,-2.954 -2.183,-4.839c-0.506,-1.886 -0.758,-3.965 -0.758,-6.236m32.072,0c0,-4.044 -0.536,-7.599 -1.606,-10.665c-1.072,-3.067 -2.537,-5.635 -4.396,-7.702c-1.86,-2.067 -4.072,-3.623 -6.638,-4.668c-2.568,-1.044 -5.327,-1.567 -8.276,-1.567c-2.87,0 -5.578,0.523 -8.124,1.567c-2.547,1.045 -4.77,2.601 -6.669,4.668c-1.901,2.067 -3.395,4.635 -4.487,7.702c-1.091,3.066 -1.637,6.621 -1.637,10.665c0,4.043 0.566,7.599 1.698,10.666c1.131,3.067 2.657,5.644 4.578,7.735c1.919,2.089 4.142,3.656 6.668,4.702c2.526,1.045 5.184,1.568 7.973,1.568c2.869,0 5.577,-0.523 8.123,-1.568c2.547,-1.046 4.769,-2.613 6.67,-4.702c1.899,-2.091 3.395,-4.668 4.486,-7.735c1.092,-3.067 1.637,-6.623 1.637,-10.666" id="path66"/>
     </g>
     <g id="g68">
      <path fill="#f3f3f4" fill-rule="nonzero" d="m616.877711,335.62976c-2.708,5.406 -5.638,10.745 -8.791,16.016c-3.153,5.27 -6.507,10.244 -10.064,14.925l0,-30.941l-9.336,0l0,47.228l7.699,0c1.334,-1.499 2.81,-3.339 4.427,-5.52c1.615,-2.18 3.263,-4.509 4.94,-6.985c1.677,-2.477 3.344,-5.043 5.002,-7.701c1.657,-2.658 3.213,-5.214 4.668,-7.667l0,27.873l9.398,0l0,-47.228l-7.943,0z" id="path70"/>
     </g>
     <g id="g72">
      <path fill="#f3f3f4" fill-rule="nonzero" d="m648.198085,343.739867c1.333,0 2.435,0.125 3.304,0.375c0.869,0.249 1.566,0.59 2.092,1.022c0.524,0.431 0.888,0.943 1.091,1.533c0.202,0.591 0.303,1.25 0.303,1.977c0,1.544 -0.647,2.828 -1.94,3.85c-1.294,1.023 -3.517,2.123 -6.669,3.305c-1.375,0.546 -2.749,1.17 -4.123,1.875c-1.374,0.704 -2.606,1.59 -3.698,2.657c-1.091,1.068 -1.98,2.362 -2.668,3.885c-0.687,1.522 -1.03,3.374 -1.03,5.555c0,2.181 0.364,4.145 1.091,5.894c0.728,1.749 1.759,3.238 3.092,4.464c1.334,1.227 2.95,2.17 4.85,2.829c1.9,0.658 4.042,0.988 6.427,0.988c2.828,0 5.274,-0.341 7.336,-1.023c2.061,-0.681 3.759,-1.43 5.092,-2.248l-2.728,-8.383c-1.172,0.682 -2.476,1.283 -3.91,1.806c-1.436,0.522 -3.163,0.784 -5.184,0.784c-2.264,0 -3.891,-0.353 -4.88,-1.056c-0.991,-0.705 -1.486,-1.784 -1.486,-3.238c0,-0.863 0.182,-1.591 0.546,-2.181c0.364,-0.591 0.879,-1.124 1.546,-1.601c0.667,-0.477 1.434,-0.909 2.303,-1.295c0.87,-0.386 1.829,-0.784 2.881,-1.193c2.182,-0.909 4.081,-1.806 5.698,-2.691c1.617,-0.887 2.961,-1.92 4.032,-3.102c1.071,-1.181 1.869,-2.567 2.395,-4.156c0.525,-1.591 0.788,-3.522 0.788,-5.793c0,-4.408 -1.374,-7.827 -4.122,-10.257c-2.749,-2.431 -6.892,-3.646 -12.429,-3.646c-1.859,0 -3.537,0.126 -5.032,0.375c-1.496,0.25 -2.819,0.556 -3.972,0.92c-1.151,0.363 -2.142,0.749 -2.97,1.158c-0.829,0.409 -1.526,0.795 -2.092,1.159l2.668,8.451c1.252,-0.774 2.798,-1.466 4.638,-2.079c1.839,-0.613 4.092,-0.92 6.76,-0.92" id="path74"/>
     </g>
     <g id="g76">
      <path fill="#0c516a" fill-rule="nonzero" d="m9.296,318.636062c-0.897,0 -1.657,-0.028 -2.282,-0.084c-0.625,-0.056 -1.162,-0.106 -1.609,-0.151l0,-10.264l3.042,0c1.297,0 2.47,0.073 3.52,0.218c1.049,0.145 1.945,0.414 2.688,0.805c0.743,0.391 1.315,0.934 1.716,1.627c0.401,0.693 0.601,1.577 0.601,2.65c0,1.028 -0.218,1.878 -0.654,2.549c-0.437,0.671 -1.015,1.201 -1.734,1.593c-0.719,0.391 -1.538,0.665 -2.458,0.822c-0.92,0.156 -1.863,0.235 -2.83,0.235m-0.106,1.979c3.467,0 6.049,-0.626 7.747,-1.878c1.698,-1.253 2.547,-3.031 2.547,-5.334c0,-1.32 -0.248,-2.443 -0.743,-3.371c-0.495,-0.928 -1.203,-1.677 -2.123,-2.247c-0.92,-0.571 -2.046,-0.984 -3.378,-1.241c-1.332,-0.258 -2.836,-0.386 -4.51,-0.386l-3.325,0l0,-8.989l-2.405,0l0,22.808c0.848,0.224 1.845,0.386 2.989,0.487c1.143,0.101 2.21,0.151 3.201,0.151" id="path78"/>
     </g>
     <g id="g80">
      <path fill="#0c516a" fill-rule="nonzero" d="m43.576197,317.797363c-0.887,-1.93 -1.752,-3.891 -2.592,-5.878c-0.841,-1.987 -1.711,-4.132 -2.611,-6.432l10.464,0c-0.905,2.303 -1.787,4.45 -2.645,6.441c-0.857,1.99 -1.729,3.947 -2.616,5.869m8.436,-20.628c-0.468,1.142 -0.898,2.24 -1.291,3.294c-0.393,1.053 -0.768,2.08 -1.126,3.079l-11.976,0c-0.409,-1.004 -0.81,-2.034 -1.201,-3.088c-0.391,-1.055 -0.806,-2.15 -1.243,-3.285l-2.512,0c0.931,2.419 1.81,4.674 2.639,6.764c0.827,2.09 1.64,4.068 2.436,5.932c0.796,1.864 1.587,3.656 2.372,5.376c0.784,1.719 1.609,3.443 2.475,5.172l2.12,0c0.865,-1.721 1.686,-3.443 2.462,-5.165c0.775,-1.723 1.563,-3.516 2.362,-5.38c0.799,-1.863 1.608,-3.842 2.429,-5.935c0.82,-2.093 1.723,-4.347 2.708,-6.764l-2.654,0z" id="path82"/>
     </g>
     <path fill="#0c516a" fill-rule="nonzero" d="m71.656099,320.413865l2.405,0l0,-23.244l-2.405,0l0,23.244z" id="path84"/>
     <g id="g86">
      <path fill="#0c516a" fill-rule="nonzero" d="m110.265803,297.169158c-0.455,0.777 -1.026,1.695 -1.713,2.752c-0.687,1.057 -1.45,2.179 -2.29,3.366c-0.84,1.186 -1.717,2.413 -2.629,3.682c-0.914,1.267 -1.823,2.5 -2.729,3.698c-0.905,1.198 -1.791,2.32 -2.658,3.367c-0.866,1.047 -1.635,1.953 -2.307,2.714l0,-19.579l-2.37,0l0,23.244l1.91,0c1.204,-1.274 2.494,-2.745 3.869,-4.413c1.375,-1.67 2.723,-3.371 4.044,-5.103c1.322,-1.732 2.556,-3.425 3.701,-5.078c1.145,-1.654 2.084,-3.096 2.818,-4.323l0,18.917l2.37,0l0,-23.244l-2.016,0z" id="path88"/>
     </g>
     <g id="g90">
      <path fill="#0c516a" fill-rule="nonzero" d="m147.535502,320.413467l0,-1.979l-7.853,0l0,-21.265l-2.405,0l0,21.265l-7.853,0l0,1.979l18.111,0z" id="path92"/>
     </g>
     <path fill="#0c516a" fill-rule="nonzero" d="m164.695099,320.413865l2.405,0l0,-23.244l-2.405,0l0,23.244z" id="path94"/>
     <g id="g96">
      <path fill="#0c516a" fill-rule="nonzero" d="m203.304805,297.169158c-0.455,0.777 -1.026,1.695 -1.713,2.752c-0.687,1.057 -1.45,2.179 -2.29,3.366c-0.84,1.186 -1.717,2.413 -2.629,3.682c-0.914,1.267 -1.823,2.5 -2.729,3.698c-0.905,1.198 -1.791,2.32 -2.658,3.367c-0.866,1.047 -1.635,1.953 -2.307,2.714l0,-19.579l-2.37,0l0,23.244l1.91,0c1.204,-1.274 2.494,-2.745 3.869,-4.413c1.375,-1.67 2.723,-3.371 4.044,-5.103c1.322,-1.732 2.556,-3.425 3.701,-5.078c1.145,-1.654 2.084,-3.096 2.818,-4.323l0,18.917l2.37,0l0,-23.244l-2.016,0z" id="path98"/>
     </g>
     <g id="g100">
      <path fill="#0c516a" fill-rule="nonzero" d="m240.033107,308.170959l2.405,0l0,-10.364c-0.448,-0.179 -1.326,-0.409 -2.635,-0.688c-1.309,-0.279 -2.919,-0.419 -4.829,-0.419c-1.604,0 -3.089,0.268 -4.457,0.804c-1.368,0.537 -2.553,1.314 -3.555,2.332c-1.002,1.017 -1.786,2.281 -2.352,3.79c-0.566,1.509 -0.849,3.237 -0.849,5.182c0,1.945 0.306,3.673 0.92,5.183c0.613,1.509 1.444,2.772 2.494,3.789c1.049,1.018 2.269,1.795 3.661,2.331c1.391,0.538 2.876,0.806 4.457,0.806c1.815,0 3.313,-0.184 4.492,-0.553c1.179,-0.369 2.04,-0.722 2.582,-1.058l-0.813,-1.944c-0.661,0.447 -1.556,0.809 -2.688,1.09c-1.132,0.278 -2.359,0.419 -3.679,0.419c-1.227,0 -2.383,-0.213 -3.467,-0.638c-1.085,-0.424 -2.028,-1.062 -2.83,-1.912c-0.802,-0.85 -1.433,-1.9 -1.892,-3.152c-0.46,-1.253 -0.69,-2.707 -0.69,-4.361c0,-1.543 0.188,-2.935 0.566,-4.176c0.377,-1.24 0.949,-2.303 1.715,-3.186c0.767,-0.884 1.716,-1.56 2.848,-2.03c1.132,-0.469 2.441,-0.704 3.927,-0.704c1.202,0 2.21,0.061 3.024,0.185c0.814,0.122 1.362,0.24 1.645,0.352l0,8.922z" id="path102"/>
     </g>
     <g id="g104">
      <path fill="#0c516a" fill-rule="nonzero" d="m293.553187,315.961166c0,0.869 -0.313,1.6 -0.937,2.191c-0.626,0.59 -1.433,0.886 -2.424,0.886c-1.202,0 -2.117,-0.308 -2.741,-0.923c-0.625,-0.614 -0.937,-1.458 -0.937,-2.532c0,-0.782 0.182,-1.56 0.548,-2.331c0.365,-0.772 1,-1.593 1.906,-2.463c1.406,0.572 2.521,1.248 3.347,2.028c0.825,0.781 1.238,1.829 1.238,3.144m-4.316,-17.182c1.368,0 2.588,0.246 3.661,0.738c1.073,0.491 1.974,1.197 2.703,2.116l-7.265,6.961c-0.483,-0.197 -0.984,-0.422 -1.504,-0.678c-0.519,-0.255 -0.985,-0.601 -1.397,-1.037c-0.413,-0.436 -0.749,-0.955 -1.008,-1.56c-0.26,-0.603 -0.39,-1.319 -0.39,-2.146c0,-0.515 0.094,-1.034 0.284,-1.56c0.188,-0.525 0.483,-0.995 0.884,-1.408c0.401,-0.414 0.931,-0.755 1.591,-1.023c0.66,-0.269 1.474,-0.403 2.441,-0.403m7.612,4.428c0.585,0.737 1.031,1.57 1.338,2.498c0.306,0.928 0.518,1.862 0.636,2.801l1.982,-0.235c-0.119,-1.095 -0.378,-2.202 -0.779,-3.321c-0.401,-1.118 -0.993,-2.148 -1.777,-3.09c0.949,-0.914 1.771,-1.751 2.467,-2.511c0.695,-0.76 1.244,-1.487 1.645,-2.18l-2.597,0c-0.332,0.514 -0.729,1.023 -1.191,1.526c-0.463,0.504 -0.998,1.045 -1.604,1.627c-0.893,-1.073 -1.996,-1.918 -3.306,-2.533c-1.312,-0.614 -2.782,-0.922 -4.412,-0.922c-1.441,0 -2.652,0.196 -3.632,0.587c-0.981,0.391 -1.772,0.895 -2.375,1.509c-0.602,0.615 -1.033,1.292 -1.293,2.03c-0.26,0.738 -0.39,1.464 -0.39,2.18c0,0.894 0.147,1.694 0.442,2.399c0.295,0.704 0.69,1.329 1.186,1.878c0.495,0.548 1.072,1.033 1.733,1.459c0.66,0.424 1.325,0.773 1.994,1.046c-0.999,0.957 -1.706,1.872 -2.118,2.744c-0.413,0.872 -0.619,1.755 -0.619,2.65c0,0.871 0.147,1.654 0.442,2.347c0.295,0.693 0.707,1.281 1.238,1.762c0.531,0.48 1.161,0.843 1.893,1.09c0.73,0.246 1.521,0.369 2.37,0.369c0.872,0 1.662,-0.129 2.37,-0.386c0.707,-0.258 1.296,-0.604 1.768,-1.04c0.472,-0.436 0.837,-0.956 1.097,-1.56c0.259,-0.604 0.389,-1.252 0.389,-1.945c0,-0.827 -0.153,-1.571 -0.46,-2.231c-0.307,-0.66 -0.707,-1.246 -1.202,-1.76c-0.496,-0.515 -1.068,-0.973 -1.716,-1.376c-0.649,-0.403 -1.338,-0.773 -2.068,-1.112l6.549,-6.3z" id="path106"/>
     </g>
     <g id="g108">
      <path fill="#0c516a" fill-rule="nonzero" d="m343.253199,299.181869c0.141,-0.023 0.5,-0.067 1.079,-0.135c0.577,-0.066 1.503,-0.1 2.776,-0.1c1.77,0 3.313,0.229 4.634,0.688c1.321,0.457 2.428,1.112 3.326,1.962c0.896,0.85 1.568,1.883 2.016,3.102c0.448,1.219 0.671,2.588 0.671,4.109c0,1.521 -0.223,2.885 -0.671,4.093c-0.448,1.207 -1.12,2.235 -2.016,3.085c-0.898,0.85 -2.005,1.504 -3.326,1.962c-1.321,0.459 -2.864,0.688 -4.634,0.688c-1.273,0 -2.199,-0.034 -2.776,-0.1c-0.579,-0.067 -0.938,-0.112 -1.079,-0.135l0,-19.219zm17.05,-9.593c0,17.229 -0.33,15.496 -0.991,14.02c-0.661,-1.476 -1.586,-2.705 -2.776,-3.689c-1.191,-0.985 -2.612,-1.723 -4.262,-2.214c-1.652,-0.492 -3.467,-0.738 -5.449,-0.738c-0.99,0 -2.028,0.051 -3.113,0.151c-1.084,0.1 -2.04,0.252 -2.865,0.453l0,22.406c0.825,0.223 1.781,0.386 2.865,0.486c1.085,0.101 2.123,0.151 3.113,0.151c1.982,0 3.797,-0.247 5.449,-0.738c1.65,-0.492 3.071,-1.23 4.262,-2.214c1.19,-0.984 2.115,-2.213 2.776,-3.689c0.661,-1.476 0.991,-3.198 0.991,-5.166" id="path110"/>
     </g>
     <g id="g112">
      <path fill="#0c516a" fill-rule="nonzero" d="m378.619014,297.169158l0,23.244l14.15,0l0,-1.979l-11.744,0l0,-8.083l10.471,0l0,-1.946l-10.471,0l0,-9.257l12.664,0l0,-1.979l-15.07,0z" id="path114"/>
     </g>
     <g id="g116">
      <path fill="#0c516a" fill-rule="nonzero" d="m420.756007,296.666457c-1.58,0 -3.048,0.268 -4.404,0.805c-1.357,0.536 -2.535,1.319 -3.538,2.348c-1.002,1.028 -1.792,2.298 -2.369,3.807c-0.579,1.509 -0.867,3.236 -0.867,5.182c0,1.945 0.312,3.672 0.938,5.182c0.624,1.509 1.456,2.778 2.493,3.807c1.037,1.028 2.24,1.805 3.608,2.331c1.367,0.525 2.795,0.789 4.281,0.789c0.919,0 1.756,-0.057 2.511,-0.169c0.754,-0.112 1.415,-0.251 1.981,-0.419c0.566,-0.167 1.049,-0.335 1.451,-0.503c0.4,-0.168 0.707,-0.319 0.919,-0.452l-0.778,-1.98c-0.59,0.336 -1.339,0.666 -2.247,0.989c-0.908,0.324 -2.033,0.487 -3.378,0.487c-1.533,0 -2.871,-0.246 -4.015,-0.738c-1.144,-0.492 -2.104,-1.185 -2.883,-2.079c-0.778,-0.895 -1.361,-1.957 -1.75,-3.187c-0.389,-1.229 -0.584,-2.594 -0.584,-4.092c0,-1.543 0.195,-2.934 0.584,-4.176c0.389,-1.241 0.96,-2.297 1.715,-3.17c0.754,-0.871 1.681,-1.542 2.777,-2.012c1.097,-0.47 2.352,-0.704 3.767,-0.704c1.556,0 2.859,0.139 3.909,0.419c1.049,0.279 1.845,0.564 2.387,0.855l0.673,-1.945c-0.165,-0.112 -0.449,-0.241 -0.849,-0.386c-0.401,-0.145 -0.908,-0.297 -1.521,-0.452c-0.613,-0.157 -1.322,-0.286 -2.122,-0.386c-0.803,-0.101 -1.699,-0.151 -2.689,-0.151" id="path118"/>
     </g>
     <g id="g120">
      <path fill="#0c516a" fill-rule="nonzero" d="m463.511683,308.808257c0,1.565 -0.212,2.968 -0.637,4.21c-0.424,1.241 -1.026,2.297 -1.803,3.169c-0.779,0.872 -1.717,1.538 -2.813,1.996c-1.097,0.458 -2.329,0.687 -3.697,0.687c-1.368,0 -2.6,-0.229 -3.696,-0.687c-1.097,-0.458 -2.034,-1.124 -2.812,-1.996c-0.778,-0.872 -1.38,-1.928 -1.804,-3.169c-0.425,-1.242 -0.637,-2.645 -0.637,-4.21c0,-1.565 0.212,-2.968 0.637,-4.21c0.424,-1.241 1.026,-2.297 1.804,-3.169c0.778,-0.872 1.715,-1.543 2.812,-2.013c1.096,-0.47 2.328,-0.704 3.696,-0.704c1.368,0 2.6,0.234 3.697,0.704c1.096,0.47 2.034,1.141 2.813,2.013c0.777,0.872 1.379,1.928 1.803,3.169c0.425,1.242 0.637,2.645 0.637,4.21m2.547,0c0,-1.991 -0.307,-3.746 -0.919,-5.266c-0.614,-1.521 -1.446,-2.79 -2.495,-3.807c-1.049,-1.017 -2.27,-1.784 -3.661,-2.298c-1.391,-0.514 -2.865,-0.771 -4.422,-0.771c-1.556,0 -3.03,0.257 -4.421,0.771c-1.392,0.514 -2.612,1.281 -3.661,2.298c-1.05,1.017 -1.882,2.286 -2.494,3.807c-0.614,1.52 -0.92,3.275 -0.92,5.266c0,1.99 0.306,3.74 0.92,5.249c0.612,1.51 1.444,2.772 2.494,3.79c1.049,1.018 2.269,1.783 3.661,2.298c1.391,0.514 2.865,0.772 4.421,0.772c1.557,0 3.031,-0.258 4.422,-0.772c1.391,-0.515 2.612,-1.28 3.661,-2.298c1.049,-1.018 1.881,-2.28 2.495,-3.79c0.612,-1.509 0.919,-3.259 0.919,-5.249" id="path122"/>
     </g>
     <g id="g124">
      <path fill="#0c516a" fill-rule="nonzero" d="m490.93661,318.636062c-0.897,0 -1.68,-0.028 -2.353,-0.084c-0.672,-0.056 -1.232,-0.106 -1.679,-0.151l0,-9.895l3.325,0c1.107,0 2.157,0.051 3.148,0.151c0.99,0.1 1.851,0.324 2.582,0.671c0.73,0.346 1.309,0.843 1.734,1.493c0.424,0.648 0.636,1.531 0.636,2.65c0,1.028 -0.212,1.878 -0.636,2.549c-0.425,0.67 -0.979,1.201 -1.663,1.593c-0.684,0.391 -1.468,0.659 -2.352,0.805c-0.885,0.145 -1.799,0.218 -2.742,0.218m9.904,-5.199c0,-1.744 -0.483,-3.12 -1.45,-4.126c-0.967,-1.006 -2.24,-1.733 -3.82,-2.18c0.377,-0.447 0.866,-1.052 1.468,-1.811c0.601,-0.761 1.22,-1.593 1.857,-2.499c0.637,-0.906 1.261,-1.851 1.875,-2.834c0.613,-0.985 1.132,-1.924 1.556,-2.818l-2.582,0c-0.495,0.894 -1.031,1.789 -1.609,2.683c-0.579,0.894 -1.168,1.761 -1.769,2.6c-0.601,0.839 -1.185,1.615 -1.751,2.331c-0.566,0.715 -1.061,1.341 -1.486,1.879c-0.755,-0.068 -1.509,-0.101 -2.264,-0.101l-3.961,0l0,-9.392l-2.406,0l0,22.808c0.849,0.224 1.845,0.386 2.989,0.487c1.144,0.101 2.199,0.151 3.166,0.151c3.372,0 5.913,-0.604 7.623,-1.811c1.71,-1.208 2.564,-2.998 2.564,-5.367" id="path126"/>
     </g>
     <g id="g128">
      <path fill="#0c516a" fill-rule="nonzero" d="m529.157923,317.797363c-0.888,-1.93 -1.752,-3.891 -2.593,-5.878c-0.84,-1.987 -1.71,-4.132 -2.61,-6.432l10.463,0c-0.905,2.303 -1.787,4.45 -2.644,6.441c-0.857,1.99 -1.73,3.947 -2.616,5.869m8.436,-20.628c-0.468,1.142 -0.899,2.24 -1.291,3.294c-0.393,1.053 -0.769,2.08 -1.126,3.079l-11.976,0c-0.41,-1.004 -0.81,-2.034 -1.202,-3.088c-0.391,-1.055 -0.805,-2.15 -1.243,-3.285l-2.511,0c0.931,2.419 1.81,4.674 2.638,6.764c0.828,2.09 1.64,4.068 2.436,5.932c0.796,1.864 1.587,3.656 2.372,5.376c0.785,1.719 1.61,3.443 2.475,5.172l2.121,0c0.864,-1.721 1.685,-3.443 2.461,-5.165c0.776,-1.723 1.564,-3.516 2.362,-5.38c0.799,-1.863 1.609,-3.842 2.429,-5.935c0.82,-2.093 1.723,-4.347 2.709,-6.764l-2.654,0z" id="path130"/>
     </g>
     <g id="g132">
      <path fill="#0c516a" fill-rule="nonzero" d="m570.013819,320.413467l0,-1.979l-7.852,0l0,-21.265l-2.406,0l0,21.265l-7.853,0l0,1.979l18.111,0z" id="path134"/>
     </g>
     <path fill="#0c516a" fill-rule="nonzero" d="m587.173099,320.413865l2.406,0l0,-23.244l-2.406,0l0,23.244z" id="path136"/>
     <g id="g138">
      <path fill="#0c516a" fill-rule="nonzero" d="m625.782985,297.169158c-0.454,0.777 -1.026,1.695 -1.713,2.752c-0.686,1.057 -1.45,2.179 -2.29,3.366c-0.839,1.186 -1.716,2.413 -2.629,3.682c-0.913,1.267 -1.823,2.5 -2.729,3.698c-0.905,1.198 -1.791,2.32 -2.657,3.367c-0.867,1.047 -1.636,1.953 -2.308,2.714l0,-19.579l-2.37,0l0,23.244l1.91,0c1.204,-1.274 2.494,-2.745 3.869,-4.413c1.375,-1.67 2.723,-3.371 4.045,-5.103c1.322,-1.732 2.555,-3.425 3.7,-5.078c1.146,-1.654 2.084,-3.096 2.818,-4.323l0,18.917l2.371,0l0,-23.244l-2.017,0z" id="path140"/>
     </g>
     <g id="g142">
      <path fill="#0c516a" fill-rule="nonzero" d="m662.51211,308.170959l2.406,0l0,-10.364c-0.449,-0.179 -1.327,-0.409 -2.636,-0.688c-1.309,-0.279 -2.918,-0.419 -4.828,-0.419c-1.604,0 -3.09,0.268 -4.457,0.804c-1.368,0.537 -2.553,1.314 -3.556,2.332c-1.002,1.017 -1.786,2.281 -2.352,3.79c-0.566,1.509 -0.849,3.237 -0.849,5.182c0,1.945 0.306,3.673 0.92,5.183c0.613,1.509 1.444,2.772 2.494,3.789c1.049,1.018 2.27,1.795 3.661,2.331c1.391,0.538 2.877,0.806 4.457,0.806c1.816,0 3.313,-0.184 4.493,-0.553c1.178,-0.369 2.039,-0.722 2.582,-1.058l-0.814,-1.944c-0.661,0.447 -1.556,0.809 -2.688,1.09c-1.132,0.278 -2.359,0.419 -3.679,0.419c-1.227,0 -2.382,-0.213 -3.466,-0.638c-1.086,-0.424 -2.029,-1.062 -2.831,-1.912c-0.801,-0.85 -1.432,-1.9 -1.892,-3.152c-0.46,-1.253 -0.69,-2.707 -0.69,-4.361c0,-1.543 0.189,-2.935 0.566,-4.176c0.378,-1.24 0.95,-2.303 1.716,-3.186c0.766,-0.884 1.715,-1.56 2.847,-2.03c1.132,-0.469 2.441,-0.704 3.927,-0.704c1.203,0 2.211,0.061 3.025,0.185c0.813,0.122 1.361,0.24 1.644,0.352l0,8.922z" id="path144"/>
     </g>
    </g>
   </g>
   <g id="g146">
    <g id="g148" clip-path="url(#clipPath152)">
     <g id="g154">
      <path fill="#00979a" fill-rule="nonzero" d="m425.957484,496.939956c-0.083,2.797 -0.162,5.447 -0.247,8.319c-1.606,-1.397 -2.912,-2.531 -4.479,-3.893c0.557,3.964 1.068,7.603 1.618,11.521c-2.467,-2.099 -4.647,-3.953 -7.07,-6.015c0.29,2.216 0.539,4.116 0.801,6.12c-1.69,-0.624 -3.211,-1.185 -4.863,-1.795c0.403,3.808 0.047,7.21 -1.295,10.421c-2.009,-1.336 -3.94,-2.619 -6.007,-3.994c-1.203,3.848 -2.351,7.516 -3.515,11.235c-1.353,-0.84 -2.575,-1.599 -4.064,-2.523c1.393,4.109 1.963,7.924 1.784,11.928c-2.252,-2.698 -4.551,-4.873 -7.876,-5.473c-0.046,0.63 -0.122,1.177 -0.119,1.736c0.012,1.916 0.014,3.832 0.096,5.756c0.042,0.998 -0.192,1.387 -1.327,1.339c-2.203,-0.091 -4.374,0.082 -6.574,0.146c0.068,0.213 0.07,0.318 0.122,0.371c4.764,4.799 8.412,10.331 11.955,15.954c0.963,1.529 2.375,2.825 3.837,4.525c0.081,-3.261 0.151,-6.086 0.228,-9.202c2.189,2.443 4.145,4.626 6.36,7.099c-0.626,-3.863 -1.186,-7.32 -1.758,-10.846c3.871,0.448 6.95,2.736 10.198,5.001c-0.056,-5.335 -0.248,-10.456 -1.824,-15.765l6.064,6.064c0.009,-3.153 0.017,-5.985 0.025,-8.817c0.11,-0.056 0.22,-0.112 0.331,-0.168c1.874,1.875 3.749,3.75 5.809,5.809c0.792,-5.112 0.667,-9.938 -1.032,-15.176c3.767,2.374 6.351,5.481 8.891,9.09c0.1,-4.485 0.357,-8.633 -1.679,-13.055c1.357,0.876 2.486,1.606 3.767,2.433c0.198,-3.533 0.388,-6.913 0.576,-10.282c1.985,0.209 3.844,0.403 5.796,0.609c-3.372,-6.755 -10.568,-15.922 -14.529,-18.472m-105.621,-64.806c-2.149,-2.15 -5.102,-2.682 -6.594,-1.189c-1.493,1.492 -0.96,4.444 1.189,6.594c2.149,2.149 5.101,2.681 6.594,1.189c1.492,-1.493 0.96,-4.445 -1.189,-6.594m136.578,100.145l-0.363,0.362c-0.566,-0.51 -1.123,-1.033 -1.669,-1.574c-0.049,-0.05 -0.15,-0.047 -0.356,-0.106c-0.087,1.337 -0.21,2.666 -0.29,3.996l-3.76,3.759c-1.088,0.022 -2.175,0.053 -3.261,0.086c-0.544,0.016 -1.078,0.11 -1.692,0.176c0.187,1.293 0.638,2.41 1.265,3.426l-3.696,3.696c-1.334,-0.232 -2.68,-0.551 -4.057,-0.973c0.686,1.148 1.275,2.132 1.882,3.148l-1.312,1.312c-3.066,1.059 -6.123,2.114 -9.303,3.212c0.818,1.271 1.601,2.488 2.386,3.705l-3.392,3.392c-1.754,0.292 -3.575,0.36 -5.498,0.226c0.453,1.344 0.878,2.604 1.329,3.943l-0.636,0.636c-1.624,-0.154 -3.223,-0.306 -5.039,-0.479c0.866,1.032 1.693,2.015 2.519,2.999l-3.021,3.022c-1.654,-0.173 -3.315,-0.347 -5.042,-0.528c0.91,1.059 1.714,1.993 2.575,2.994l-1.381,1.381c-1.899,0.126 -3.747,0.248 -5.662,0.374c0.465,0.747 1.188,1.613 2.085,2.539c-3.449,2.017 -6.377,0.978 -10.773,-3.05c-16.085,-14.736 -32.154,-29.492 -48.078,-44.405c-8.614,-8.069 -8.572,-9.58 -1.321,-17.805c8.932,-10.13 9.424,-18.579 1.091,-30.641c-2.844,-4.117 -6.442,-7.956 -10.297,-11.175c-6.952,-5.805 -14.7,-10.65 -21.467,-16.644c-5.845,-5.177 -11.162,-11.114 -16.009,-17.245c-3.626,-4.587 -3.612,-9.925 -0.013,-14.177c4.252,-3.599 9.59,-3.613 14.177,0.012c6.132,4.847 12.068,10.165 17.245,16.009c5.995,6.768 10.839,14.516 16.644,21.467c3.219,3.855 7.058,7.454 11.175,10.298c12.062,8.333 20.511,7.84 30.641,-1.091c8.225,-7.251 9.737,-7.294 17.805,1.321c14.913,15.923 29.669,31.993 44.406,48.078c5.321,5.808 5.435,9.051 0.163,14.324" id="path156"/>
     </g>
     <g id="g158">
      <path fill="#f3f3f4" fill-rule="nonzero" d="m369.15121,437.013778c2.149,-2.149 2.681,-5.102 1.189,-6.594c-1.492,-1.492 -4.445,-0.96 -6.594,1.189c-2.149,2.149 -2.681,5.102 -1.189,6.594c1.492,1.492 4.445,0.96 6.594,-1.189m-79.226,141.089c-2.047,-0.913 -4.009,-1.788 -6.085,-2.714c-0.254,-2.186 -0.5,-4.307 -0.775,-6.667c-2.292,0.116 -4.38,0.223 -6.658,0.339c0.191,-2.121 0.365,-4.055 0.539,-5.988c-0.084,-0.08 -0.168,-0.16 -0.252,-0.24c-1.524,0.752 -3.048,1.505 -4.572,2.257c-0.089,-0.086 -0.179,-0.171 -0.269,-0.257c0.858,-1.346 1.716,-2.693 2.574,-4.039c-0.103,-0.117 -0.206,-0.233 -0.309,-0.35c-2.578,-0.476 -5.157,-0.952 -7.886,-1.457c-1.78,-3.204 -3.516,-6.33 -5.344,-9.621c-0.92,0.26 -1.73,0.49 -2.684,0.76c-1.933,-3.85 -3.773,-7.515 -5.661,-11.278c-0.285,0.966 -0.281,2.118 -0.889,2.681c-0.598,0.553 -1.817,0.51 -2.764,0.728c-0.109,-0.109 -0.218,-0.217 -0.327,-0.326c-0.209,-2.065 -0.417,-4.129 -0.649,-6.432c-2.264,0.146 -4.317,0.28 -6.569,0.425c0.232,-2.133 0.441,-4.063 0.651,-5.993c-0.071,-0.066 -0.142,-0.133 -0.214,-0.199c-1.535,0.79 -3.07,1.58 -4.606,2.37c-0.152,-0.11 -0.303,-0.22 -0.455,-0.33c-0.109,-0.856 -0.382,-1.84 -0.291,-2.543c0.202,-1.56 0.586,-2.98 0.937,-4.654c-3.523,-1.138 -6.705,-2.166 -10.014,-3.235c-2.552,-3.658 -5.078,-7.278 -7.899,-11.323c1.236,5.475 1.066,9.671 -0.719,12.674c1.289,-0.404 2.578,-0.808 3.941,-1.236c3.083,4.116 4.856,7.68 6.362,11.51c1.881,-0.209 3.554,-0.394 5.264,-0.584c0.077,0.676 0.161,1.408 0.264,2.31c1.128,0.146 2.125,0.275 3.305,0.428c0.99,2.892 1.893,5.53 2.875,8.397c1.777,-0.128 3.421,-0.247 5.233,-0.378c0.305,1.34 0.569,2.499 0.89,3.906c1.296,-0.054 2.433,-0.101 3.635,-0.151c1.053,2.229 1.746,4.156 0.684,4.975c1.699,-0.226 3.398,-0.453 5.258,-0.7c0.635,2.263 1.221,4.35 1.895,6.752c1.31,-0.794 2.457,-1.489 3.604,-2.184c0.095,0.07 0.19,0.141 0.285,0.212c0.631,3.398 1.262,6.796 1.894,10.194c0.098,0.118 0.195,0.237 0.293,0.355c1.612,-0.081 3.223,-0.162 4.855,-0.244c0.074,0.427 0.152,0.876 0.261,1.506c1.147,0.123 2.142,0.23 3.298,0.355c1.037,2.908 2.01,5.637 3.075,8.626c1.815,-0.098 3.477,-0.188 5.314,-0.287c0.336,1.382 0.624,2.568 0.963,3.963c1.302,-0.019 2.463,-0.036 3.759,-0.055c0.506,1.301 0.97,2.493 1.515,3.895c2.182,-0.982 2.689,-3.199 2.468,-6.153m33.495,-3.843c-8.568,8.557 -13.889,10.23 -21.771,6.872c-0.135,-0.057 -0.387,0.057 -0.587,0.095c-0.199,0.155 -0.414,0.288 -0.589,0.462c-3.228,3.21 -6.447,6.427 -9.675,9.636c-3.37,3.35 -5.441,4.504 -7.498,3.719c-0.058,-0.1 -0.115,-0.2 -0.177,-0.304c-1.536,-1.259 -3.023,-2.478 -4.551,-3.731c-0.53,-0.53 -1.06,-1.061 -1.591,-1.591c-0.96,-1.55 -1.908,-3.08 -2.949,-4.761c-1.369,-0.745 -2.644,-1.437 -3.968,-2.157c-0.476,-0.476 -0.952,-0.952 -1.428,-1.428c-0.557,-1.168 -1.082,-2.271 -1.606,-3.371l-0.292,-0.292c-0.677,-0.088 -1.354,-0.177 -2.031,-0.266c-0.266,-0.266 -0.533,-0.533 -0.8,-0.8c0.086,-0.49 0.173,-0.98 0.26,-1.47c-0.127,-0.133 -0.254,-0.267 -0.38,-0.4c-1.86,-1.285 -3.724,-2.574 -5.664,-3.914c-0.851,-0.851 -1.702,-1.703 -2.553,-2.554c-2.134,-2.55 -4.252,-5.082 -6.459,-7.719c-0.601,-0.213 -1.13,-0.401 -1.753,-0.623c-3.052,-3.745 -5.958,-7.311 -8.942,-10.972c0.174,0.597 0.647,1.463 0.409,1.615c-0.195,0.124 -0.889,-0.253 -1.485,-0.531c-0.339,-0.338 -0.677,-0.677 -1.015,-1.015c-0.906,-1.485 -1.82,-2.983 -2.829,-4.638c-1.339,-0.715 -2.583,-1.378 -3.878,-2.069c-0.464,-0.465 -0.929,-0.929 -1.394,-1.394c-0.536,-1.162 -1.04,-2.254 -1.542,-3.342c-0.082,-0.081 -0.164,-0.163 -0.245,-0.244c-0.67,-0.071 -1.34,-0.141 -2.009,-0.211c-0.674,-0.674 -1.348,-1.347 -2.021,-2.021c-0.12,-0.197 -0.222,-0.379 -0.287,-0.524c-0.481,-1.08 -0.763,-1.974 -1.175,-3.073c-3.171,-2.42 -6.034,-4.605 -9.012,-6.877c-1.492,-1.677 -2.979,-3.348 -4.493,-5.049c-0.947,-2.136 0.135,-4.301 3.447,-7.631c3.531,-3.551 7.08,-7.084 10.577,-10.582c-2.422,-3.148 -2.279,-5.641 0.239,-8.184c2.475,-2.5 4.933,-2.668 8.247,-0.301c3.707,-3.707 7.252,-7.279 10.827,-10.82c4.089,-4.051 6.486,-4.537 9.216,-1.809c0.73,0.729 1.458,1.459 2.188,2.188c0.678,1.095 1.365,2.203 2.099,3.388c0.973,0.529 1.897,1.031 2.825,1.536c1.016,1.015 2.03,2.031 3.046,3.047c0.384,0.806 0.758,1.591 1.131,2.373c0.097,0.097 0.194,0.195 0.292,0.292c0.476,0.062 0.953,0.125 1.43,0.187c0.441,0.441 0.882,0.882 1.323,1.323c-0.061,0.342 -0.121,0.684 -0.182,1.026c0.127,0.134 0.254,0.267 0.38,0.4c1.314,0.908 2.631,1.819 3.974,2.746c2.307,2.306 4.612,4.614 6.919,6.92c1.246,1.488 2.499,2.986 3.783,4.521c0.394,0.14 0.765,0.272 1.145,0.407c0.777,0.777 1.555,1.555 2.332,2.332c2.433,2.986 4.802,5.893 7.218,8.856c-0.175,-0.597 -0.647,-1.462 -0.409,-1.614c0.088,-0.057 0.279,-0.01 0.516,0.084c0.934,0.933 1.867,1.866 2.8,2.8c0.645,1.057 1.305,2.138 2.013,3.299c0.951,0.507 1.853,0.989 2.758,1.472c0.987,0.987 1.974,1.974 2.961,2.961c0.373,0.808 0.735,1.592 1.095,2.372c0.082,0.082 0.164,0.163 0.245,0.245c0.476,0.05 0.951,0.099 1.426,0.149c1.033,1.033 2.065,2.065 3.097,3.098c0.36,0.869 0.622,1.655 0.969,2.581c2.384,1.819 4.594,3.506 6.809,5.196c2.14,2.142 4.282,4.28 6.421,6.421c1.016,1.142 2.045,2.298 3.095,3.478c1.073,2.062 0.142,4.17 -2.979,7.327c-3.514,3.555 -7.065,7.074 -10.932,10.941c2.456,1.009 4.391,-0.037 6.452,-2.114c5.432,-5.476 10.905,-10.912 16.355,-16.369c4.782,-4.789 5.128,-6.471 1.815,-9.7c-11.251,-10.972 -22.591,-21.855 -33.783,-32.886c-5.088,-5.016 -3.4,-13.351 3.993,-20.891c2.452,-2.5 4.949,-4.957 7.526,-7.533c-0.685,-0.796 -1.192,-1.365 -1.679,-1.952c-2.126,-2.558 -1.694,-4.829 1.767,-8.298c16.794,-16.825 33.602,-33.635 50.429,-50.426c3.439,-3.431 5.881,-3.887 8.238,-1.611c2.827,2.729 5.574,5.538 8.346,8.323c3.272,3.287 2.918,5.194 -1.928,10.044c-14.746,14.759 -29.502,29.509 -44.257,44.26c-1.967,1.966 -3.918,3.952 -5.928,5.871c-2.596,2.48 -4.918,2.931 -6.877,1.504c-0.87,-0.634 -1.692,-1.323 -2.673,-2.095c-2.046,2.047 -3.824,3.822 -5.6,5.6c-5.166,5.175 -5.467,6.825 -1.981,10.214c11.084,10.777 22.19,21.532 33.208,32.375c5.679,5.59 4.106,13.57 -4.234,22.037c-5.147,5.224 -10.361,10.382 -15.55,15.564" id="path160"/>
     </g>
    </g>
   </g>
  </g>
 </g>
</svg>